<?xml version="1.0" standalone="no"?><!DOCTYPE svg PUBLIC "-//W3C//DTD SVG 1.1//EN" "http://www.w3.org/Graphics/SVG/1.1/DTD/svg11.dtd"><svg t="1576057898380" class="icon" viewBox="0 0 1024 1024" version="1.1" xmlns="http://www.w3.org/2000/svg" p-id="1253" xmlns:xlink="http://www.w3.org/1999/xlink" width="200" height="200"><defs><style type="text/css"></style></defs><path d="M885.952 736.864c-11.488-15.616-24.256-34.368-38.432-56.064-13.728-20.832-26.848-44.32-39.168-70.112-11.936-24.512-22.592-51.552-31.616-80.448-8.192-26.56-12.32-54.112-12.32-81.792 0-33.664-4.768-64.768-14.24-92.384-9.216-27.424-21.856-52.384-37.664-74.432-15.936-21.856-35.04-40.512-56.768-55.424-19.744-13.664-41.408-24.32-67.392-33.088 5.344-11.488 8.512-24.192 8.512-37.728 0-49.984-40.64-90.624-90.624-90.624-49.984 0-90.624 40.64-90.624 90.624 0 13.408 3.104 26.112 8.384 37.536-2.336 0.576-5.088 1.024-7.168 1.6-22.176 7.68-43.936 18.976-65.216 33.856-21.152 15.296-39.552 33.536-54.816 53.984-16.064 21.472-28.96 46.176-38.304 73.344-9.92 28.128-14.848 59.68-14.848 93.728 0 28.64-4.128 56.448-12.256 82.368-8.896 27.872-19.424 54.496-31.296 79.264-11.36 23.808-24 46.944-38.56 70.496-14.464 23.232-26.912 44.192-36.768 61.664-17.856 27.744-10.848 50.944-5.024 61.28 9.856 17.152 26.336 28.576 46.56 28.576l675.488 0c9.28 0 18.432-4.512 26.4-9.216 8.256-4.512 15.296-12.192 20.256-19.872 5.664-8.512 8.896-18.784 9.472-29.728C898.72 761.312 894.592 748.352 885.952 736.864L885.952 736.864zM506.304 128.224c14.912 0 27.104 12.128 27.104 27.104s-12.192 27.104-27.104 27.104c-14.912 0-27.104-12.192-27.104-27.104C479.2 140.416 491.328 128.224 506.304 128.224L506.304 128.224zM185.056 769.504c8.96 0 19.04-34.24 30.432-52.576 15.872-25.6 29.536-51.616 41.856-77.536 13.088-27.232 24.704-57.088 34.592-87.936 10.112-32.32 15.232-66.752 15.232-101.792 0-26.88 3.808-51.424 11.36-73.024 7.232-21.152 17.024-40 29.152-56.256 11.424-15.36 25.28-29.088 40.704-40.256 16.192-11.36 32.32-19.744 47.616-25.088 6.976-2.016 28.576-4.448 66.496-4.448 35.552 0 63.552 2.016 65.536 2.144 18.432 6.112 35.68 14.656 51.584 25.728 15.808 10.912 29.792 24.576 41.344 40.448 12 16.704 21.792 36 28.96 57.472 7.168 21.152 10.848 45.408 10.848 72.064 0 34.048 5.088 67.872 15.168 100.576 9.984 32.064 21.856 62.176 35.104 89.28 13.536 28.128 28.064 56.192 43.232 79.264 12.192 18.592 23.296 51.936 33.984 51.936L185.056 769.504 185.056 769.504zM347.552 896.512l317.536 0L665.088 960l-317.536 0L347.552 896.512 347.552 896.512zM347.552 896.512" p-id="1254"></path></svg>