<?xml version="1.0" standalone="no"?><!DOCTYPE svg PUBLIC "-//W3C//DTD SVG 1.1//EN" "http://www.w3.org/Graphics/SVG/1.1/DTD/svg11.dtd"><svg t="1576570526164" class="icon" viewBox="0 0 1024 1024" version="1.1" xmlns="http://www.w3.org/2000/svg" p-id="4212" data-spm-anchor-id="a313x.7781069.0.i1" xmlns:xlink="http://www.w3.org/1999/xlink" width="200" height="200"><defs><style type="text/css"></style></defs><path d="M512 102.4C285.824 102.4 102.4 285.824 102.4 512S285.824 921.6 512 921.6a68.16 68.16 0 0 0 68.256-68.256c0-17.76-6.592-33.664-17.76-45.728a67.68 67.68 0 0 1-17.056-45.28 68.16 68.16 0 0 1 68.256-68.256h80.32a227.648 227.648 0 0 0 227.552-227.552c0-201.152-183.424-364.096-409.6-364.096zM261.696 512c-37.76 0-68.256-30.496-68.256-68.256s30.496-68.256 68.256-68.256 68.256 30.496 68.256 68.256S299.456 512 261.696 512z m136.512-182.048c-37.76 0-68.256-30.496-68.256-68.256s30.496-68.256 68.256-68.256 68.256 30.496 68.256 68.256-30.496 68.256-68.256 68.256z m227.584 0c-37.76 0-68.256-30.496-68.256-68.256s30.496-68.256 68.256-68.256 68.256 30.496 68.256 68.256-30.496 68.256-68.256 68.256zM762.304 512c-37.76 0-68.256-30.496-68.256-68.256s30.496-68.256 68.256-68.256 68.256 30.496 68.256 68.256S800.064 512 762.304 512z" p-id="4213"></path></svg>