<?xml version="1.0" standalone="no"?><!DOCTYPE svg PUBLIC "-//W3C//DTD SVG 1.1//EN" "http://www.w3.org/Graphics/SVG/1.1/DTD/svg11.dtd"><svg t="1576552982509" class="icon" viewBox="0 0 1024 1024" version="1.1" xmlns="http://www.w3.org/2000/svg" p-id="5249" xmlns:xlink="http://www.w3.org/1999/xlink" width="200" height="200"><defs><style type="text/css"></style></defs><path d="M576 160h-128a32 32 0 0 1 0-64h128a32 32 0 1 1 0 64z m242.976 186.272l35.648-35.648a31.968 31.968 0 1 0-45.248-45.248l-32.896 32.896A382.464 382.464 0 0 0 512 192C300.256 192 128 364.256 128 576s172.256 384 384 384 384-172.256 384-384c0-86.176-28.896-165.568-77.024-229.728zM544 894.368V864a32 32 0 1 0-64 0v30.368c-150.944-15.04-271.328-135.424-286.368-286.368H224a32 32 0 1 0 0-64h-30.368c15.04-150.944 135.424-271.328 286.368-286.368V288a32 32 0 0 0 64 0v-30.368c150.944 15.072 271.328 135.424 286.368 286.368H800a32 32 0 1 0 0 64h30.368c-15.04 150.944-135.424 271.328-286.368 286.368z m108-471.36l-160 128a32 32 0 0 0 39.968 49.984l160-128a32 32 0 0 0-39.968-49.984z" p-id="5250"></path></svg>