<?xml version="1.0" standalone="no"?><!DOCTYPE svg PUBLIC "-//W3C//DTD SVG 1.1//EN" "http://www.w3.org/Graphics/SVG/1.1/DTD/svg11.dtd"><svg t="1576552715137" class="icon" viewBox="0 0 1024 1024" version="1.1" xmlns="http://www.w3.org/2000/svg" p-id="4217" data-spm-anchor-id="a313x.7781069.0.i4" xmlns:xlink="http://www.w3.org/1999/xlink" width="200" height="200"><defs><style type="text/css"></style></defs><path d="M608 768a32 32 0 0 1-32-32V384a32 32 0 1 1 64 0v352a32 32 0 0 1-32 32z m-192 0a32 32 0 0 1-32-32V384a32 32 0 1 1 64 0v352a32 32 0 0 1-32 32zM928 224h-160V160c0-52.928-42.72-96-95.264-96H352C299.072 64 256 107.072 256 160v64H96a32 32 0 1 0 0 64h832a32 32 0 1 0 0-64zM320 160c0-17.632 14.368-32 32-32h320.736c17.536 0 31.264 14.048 31.264 32v64H320V160z m416.128 800H288.064c-52.928 0-96-43.072-96-96V383.52a32 32 0 0 1 64 0V864c0 17.664 14.368 32 32 32h448.064a32 32 0 0 0 32-32V384.832a32 32 0 1 1 64 0V864c0 52.928-43.072 96-96 96z" p-id="4218"></path></svg>