<?xml version="1.0" standalone="no"?><!DOCTYPE svg PUBLIC "-//W3C//DTD SVG 1.1//EN" "http://www.w3.org/Graphics/SVG/1.1/DTD/svg11.dtd"><svg t="1576552756155" class="icon" viewBox="0 0 1024 1024" version="1.1" xmlns="http://www.w3.org/2000/svg" p-id="4463" data-spm-anchor-id="a313x.7781069.0.i11" xmlns:xlink="http://www.w3.org/1999/xlink" width="200" height="200"><defs><style type="text/css"></style></defs><path d="M800 960H224c-52.928 0-96-43.072-96-96V224c0-52.928 43.072-96 96-96h448a32 32 0 1 1 0 64H224c-17.632 0-32 14.368-32 32v640c0 17.664 14.368 32 32 32h576a32 32 0 0 0 32-32V352a32 32 0 1 1 64 0v512c0 52.928-43.072 96-96 96z m-188-512a31.968 31.968 0 0 1-22.624-54.624l318.016-318.016a31.968 31.968 0 1 1 45.248 45.248l-318.016 318.016a31.776 31.776 0 0 1-22.624 9.376zM480 448H288a32 32 0 0 1 0-64h192a32 32 0 0 1 0 64z m192 192H288a32 32 0 1 1 0-64h384a32 32 0 1 1 0 64z" p-id="4464"></path></svg>