<?xml version="1.0" standalone="no"?><!DOCTYPE svg PUBLIC "-//W3C//DTD SVG 1.1//EN" "http://www.w3.org/Graphics/SVG/1.1/DTD/svg11.dtd"><svg t="1576552738694" class="icon" viewBox="0 0 1024 1024" version="1.1" xmlns="http://www.w3.org/2000/svg" p-id="4340" data-spm-anchor-id="a313x.7781069.0.i7" xmlns:xlink="http://www.w3.org/1999/xlink" width="200" height="200"><defs><style type="text/css"></style></defs><path d="M918.4 489.6l-160-160c-12.8-12.8-32-12.8-44.8 0s-12.8 32 0 44.8l105.6 105.6H512c-19.2 0-32 12.8-32 32s12.8 32 32 32h307.2l-105.6 105.6c-12.8 12.8-12.8 32 0 44.8 6.4 6.4 12.8 9.6 22.4 9.6s16-3.2 22.4-9.6l160-163.2s0-3.2 3.2-3.2c9.6-9.6 9.6-28.8-3.2-38.4zM832 736c-19.2 0-32 12.8-32 32v64c0 19.2-12.8 32-32 32H224c-19.2 0-32-12.8-32-32V192c0-19.2 12.8-32 32-32h544c19.2 0 32 12.8 32 32v64c0 19.2 12.8 32 32 32s32-12.8 32-32V192c0-54.4-41.6-96-96-96H224C169.6 96 128 137.6 128 192v640c0 54.4 41.6 96 96 96h544c54.4 0 96-41.6 96-96v-64c0-19.2-12.8-32-32-32z" p-id="4341"></path></svg>