<?xml version="1.0" standalone="no"?><!DOCTYPE svg PUBLIC "-//W3C//DTD SVG 1.1//EN" "http://www.w3.org/Graphics/SVG/1.1/DTD/svg11.dtd"><svg t="1576552784153" class="icon" viewBox="0 0 1024 1024" version="1.1" xmlns="http://www.w3.org/2000/svg" p-id="4586" data-spm-anchor-id="a313x.7781069.0.i14" xmlns:xlink="http://www.w3.org/1999/xlink" width="200" height="200"><defs><style type="text/css"></style></defs><path d="M864 416c0-194.08-157.92-352-352-352S160 221.92 160 416c0 183.392 141.024 334.304 320.32 350.4-0.032 0.576-0.32 1.024-0.32 1.6v64h-128a32 32 0 1 0 0 64h128v32a32 32 0 1 0 64 0v-32h128a32 32 0 1 0 0-64h-128v-64c0-0.576-0.288-1.024-0.32-1.6C722.976 750.304 864 599.392 864 416z m-352 288c-158.784 0-288-129.184-288-288 0-158.784 129.216-288 288-288 158.816 0 288 129.216 288 288 0 158.816-129.184 288-288 288z" p-id="4587"></path></svg>