<?xml version="1.0" standalone="no"?><!DOCTYPE svg PUBLIC "-//W3C//DTD SVG 1.1//EN" "http://www.w3.org/Graphics/SVG/1.1/DTD/svg11.dtd"><svg t="1576056328451" class="icon" viewBox="0 0 1025 1024" version="1.1" xmlns="http://www.w3.org/2000/svg" p-id="2433" xmlns:xlink="http://www.w3.org/1999/xlink" width="200.1953125" height="200"><defs><style type="text/css"></style></defs><path d="M512.1 64c60.6 0 119.3 11.8 174.4 35.1 53.1 22.5 101 54.7 142.1 95.8l1.3 1.3 1.4 1.3 0.8 0.7c39.8 41.1 71.1 88.3 93.1 140.6 23.1 54.9 34.7 113 34.7 172.8 0 47.1-7.4 93.9-22.1 139.1l-0.1 0.2-0.1 0.2c-12.7 39.9-32 78.7-57.3 115.1l-11.4 16.5 0 20 0 156.8-357 0c-60.7 0-119.4-11.8-174.4-35-53.3-22.5-100.9-54.7-141.5-95.8l-15.6-15.7c-34.1-37.6-61.4-80.2-81.3-127-23.5-55.3-35.4-114-35.4-174.3 0-60.2 11.9-118.8 35.4-173.9 22.7-53.2 55.2-101.2 96.5-142.6l15.6-15.6c37.3-33.7 79.7-60.7 126.1-80.3C392.9 75.8 451.6 64 512.1 64M512.1 0c-141.5 0-269.5 57.3-362 149.6l0.6 0.3C57.9 242.6 0 370.4 0 511.5c0 141.4 57.9 269.5 150.1 362l0.6 0c92 93.1 220 149.8 361.5 149.8l380.7 0 0.9 0c21.8 0 39.4-17.1 39.4-39.4L933.2 802.5c27.9-40.3 50.6-84.7 65.7-132.2 16.2-50 25.2-103.4 25.2-158.8 0-140.1-56.8-267-147.6-359.8l-2.5-2.2C781.3 57.3 653.9 0 512.1 0L512.1 0z" p-id="2434"></path><path d="M768 320 256 320c-17.7 0-32-14.3-32-32s14.3-32 32-32l512 0c17.7 0 32 14.3 32 32S785.7 320 768 320z" p-id="2435"></path><path d="M768 512 256 512c-17.7 0-32-14.3-32-32s14.3-32 32-32l512 0c17.7 0 32 14.3 32 32S785.7 512 768 512z" p-id="2436"></path><path d="M768 704 256 704c-17.7 0-32-14.3-32-32s14.3-32 32-32l512 0c17.7 0 32 14.3 32 32S785.7 704 768 704z" p-id="2437"></path></svg>