<?xml version="1.0" standalone="no"?><!DOCTYPE svg PUBLIC "-//W3C//DTD SVG 1.1//EN" "http://www.w3.org/Graphics/SVG/1.1/DTD/svg11.dtd"><svg t="1576814795440" class="icon" viewBox="0 0 1024 1024" version="1.1" xmlns="http://www.w3.org/2000/svg" p-id="4486" data-spm-anchor-id="a313x.7781069.0.i5" xmlns:xlink="http://www.w3.org/1999/xlink" width="200" height="200"><defs><style type="text/css"></style></defs><path d="M512 768a32 32 0 0 1-32-32v-96a32 32 0 1 1 64 0v96a32 32 0 0 1-32 32z m320 192H192c-52.928 0-96-43.072-96-96V512c0-52.928 43.072-96 96-96h640c52.928 0 96 43.072 96 96v352c0 52.928-43.072 96-96 96zM192 480c-17.632 0-32 14.368-32 32v352c0 17.664 14.368 32 32 32h640a32 32 0 0 0 32-32V512c0-17.632-14.336-32-32-32H192z m544 0a32 32 0 0 1-32-32V318.016C704 209.248 601.76 128 510.336 128 416.768 128 320 198.912 320 317.568V448a32 32 0 0 1-64 0V317.568C256 158.848 385.312 64 510.336 64 632.224 64 768 168.32 768 318.016V448a32 32 0 0 1-32 32z" p-id="4487"></path></svg>