<?xml version="1.0" standalone="no"?><!DOCTYPE svg PUBLIC "-//W3C//DTD SVG 1.1//EN" "http://www.w3.org/Graphics/SVG/1.1/DTD/svg11.dtd"><svg t="1576552818575" class="icon" viewBox="0 0 1024 1024" version="1.1" xmlns="http://www.w3.org/2000/svg" p-id="4749" data-spm-anchor-id="a313x.7781069.0.i17" xmlns:xlink="http://www.w3.org/1999/xlink" width="200" height="200"><defs><style type="text/css"></style></defs><path d="M926.56 120.8c-0.224-1.344-0.32-2.72-0.8-4.032l-0.032-0.032c-0.8-2.176-2.112-3.968-3.36-5.888l-0.096-0.16c-0.832-1.28-1.216-2.688-2.24-3.872-0.224-0.256-0.544-0.352-0.768-0.608-1.6-1.728-3.584-2.88-5.568-4.224l-0.064-0.064c-1.504-1.024-2.848-2.272-4.48-3.008h-0.032A32.224 32.224 0 0 0 896 96h-224a32 32 0 1 0 0 64h139.328l-152.704 134.656A349.568 349.568 0 0 0 448 224C253.92 224 96 381.92 96 576s157.92 352 352 352 352-157.92 352-352a350.08 350.08 0 0 0-93.6-238.176L864 198.88V320a32 32 0 1 0 64 0V128c0-2.56-0.864-4.8-1.44-7.2zM736 576c0 158.816-129.184 288-288 288-158.784 0-288-129.184-288-288 0-158.784 129.216-288 288-288 158.816 0 288 129.216 288 288z" p-id="4750"></path></svg>