<?xml version="1.0" standalone="no"?><!DOCTYPE svg PUBLIC "-//W3C//DTD SVG 1.1//EN" "http://www.w3.org/Graphics/SVG/1.1/DTD/svg11.dtd"><svg t="1576552854314" class="icon" viewBox="0 0 1024 1024" version="1.1" xmlns="http://www.w3.org/2000/svg" p-id="4874" xmlns:xlink="http://www.w3.org/1999/xlink" width="200" height="200"><defs><style type="text/css"></style></defs><path d="M953.504 908.256l-152.608-163.296a413.312 413.312 0 0 0 95.872-265.12c0-229.344-186.624-415.968-416.032-415.968-229.344 0-415.968 186.592-415.968 415.968s186.624 415.968 416 415.968a413.248 413.248 0 0 0 172.224-37.248 32 32 0 1 0-26.496-58.24 350.016 350.016 0 0 1-145.76 31.488c-194.08 0-351.968-157.888-351.968-351.968S286.656 127.872 480.736 127.872c194.112 0 352.032 157.888 352.032 351.968 0 91.36-34.848 177.92-98.08 243.744a32 32 0 0 0 0.864 45.248c0.96 0.928 2.208 1.28 3.296 2.08 0.864 1.28 1.312 2.752 2.4 3.904l165.504 177.088a31.776 31.776 0 0 0 23.36 10.144 31.936 31.936 0 0 0 23.392-53.792z" p-id="4875"></path></svg>