<?xml version="1.0" standalone="no"?><!DOCTYPE svg PUBLIC "-//W3C//DTD SVG 1.1//EN" "http://www.w3.org/Graphics/SVG/1.1/DTD/svg11.dtd"><svg t="1576552924272" class="icon" viewBox="0 0 1024 1024" version="1.1" xmlns="http://www.w3.org/2000/svg" p-id="5124" xmlns:xlink="http://www.w3.org/1999/xlink" width="200" height="200"><defs><style type="text/css"></style></defs><path d="M512 64C264.96 64 64 264.96 64 512s200.96 448 448 448 448-200.96 448-448S759.04 64 512 64z m0 831.712c-211.584 0-383.712-172.16-383.712-383.712S300.416 128.288 512 128.288c211.552 0 383.712 172.128 383.712 383.712 0 211.552-172.16 383.712-383.712 383.712zM671.968 512H512V288.064a32 32 0 1 0-64 0V544c0 17.76 14.272 32 32 32h191.968a32 32 0 1 0 0-64z" p-id="5125"></path></svg>